<?xml version="1.0" standalone="no"?><svg xmlns="http://www.w3.org/2000/svg" viewBox="0 0 1440 320"><path fill="#f3f4f5" fill-opacity="1" d="M0,0L8,37.3C16,75,32,149,48,149.3C64,149,80,75,96,53.3C112,32,128,64,144,112C160,160,176,224,192,250.7C208,277,224,267,240,261.3C256,256,272,256,288,229.3C304,203,320,149,336,106.7C352,64,368,32,384,32C400,32,416,64,432,101.3C448,139,464,181,480,176C496,171,512,117,528,85.3C544,53,560,43,576,32C592,21,608,11,624,10.7C640,11,656,21,672,69.3C688,117,704,203,720,213.3C736,224,752,160,768,165.3C784,171,800,245,816,282.7C832,320,848,320,864,277.3C880,235,896,149,912,149.3C928,149,944,235,960,234.7C976,235,992,149,1008,112C1024,75,1040,85,1056,85.3C1072,85,1088,75,1104,64C1120,53,1136,43,1152,53.3C1168,64,1184,96,1200,128C1216,160,1232,192,1248,208C1264,224,1280,224,1296,192C1312,160,1328,96,1344,64C1360,32,1376,32,1392,58.7C1408,85,1424,139,1432,165.3L1440,192L1440,320L1432,320C1424,320,1408,320,1392,320C1376,320,1360,320,1344,320C1328,320,1312,320,1296,320C1280,320,1264,320,1248,320C1232,320,1216,320,1200,320C1184,320,1168,320,1152,320C1136,320,1120,320,1104,320C1088,320,1072,320,1056,320C1040,320,1024,320,1008,320C992,320,976,320,960,320C944,320,928,320,912,320C896,320,880,320,864,320C848,320,832,320,816,320C800,320,784,320,768,320C752,320,736,320,720,320C704,320,688,320,672,320C656,320,640,320,624,320C608,320,592,320,576,320C560,320,544,320,528,320C512,320,496,320,480,320C464,320,448,320,432,320C416,320,400,320,384,320C368,320,352,320,336,320C320,320,304,320,288,320C272,320,256,320,240,320C224,320,208,320,192,320C176,320,160,320,144,320C128,320,112,320,96,320C80,320,64,320,48,320C32,320,16,320,8,320L0,320Z"></path></svg>